<svg id="SvgjsSvg1011" width="288" height="288" xmlns="http://www.w3.org/2000/svg" version="1.1" xmlns:xlink="http://www.w3.org/1999/xlink" xmlns:svgjs="http://svgjs.com/svgjs"><rect id="SvgjsRect1016" width="288" height="288" rx="0" ry="0" transform="matrix(1,0,0,1,0,0)" fill="#1d1d1d"></rect><defs id="SvgjsDefs1012"></defs><g id="SvgjsG1013" transform="matrix(0.93,0,0,0.93,10.079938394877814,10.078074940294016)"><svg xmlns="http://www.w3.org/2000/svg" viewBox="0 0 32 32" width="288" height="288"><path d="M.344 0A.515.515 0 0 0 0 .5v31c0 .262.238.5.5.5h31a.52.52 0 0 0 .5-.5V.5a.52.52 0 0 0-.5-.5H.5a.501.501 0 0 0-.156 0zM1 1h30v3H1V1zm1.5 1a.5.5 0 1 0 0 1 .5.5 0 0 0 0-1zm2 0a.5.5 0 1 0 0 1 .5.5 0 0 0 0-1zm2 0a.5.5 0 1 0 0 1 .5.5 0 0 0 0-1zM1 5h30v26h-5.5v-4a3.977 3.977 0 0 0-2-3.438l-5-2.843v-2.375a4.58 4.58 0 0 0 1-2.844v-1.344a.516.516 0 0 0 0-.312V9.75c-.099-.76-.33-1.443-.781-1.969-.451-.525-1.13-.847-1.938-.843h-.468l-.032.468c-.01.158-.088.261-.25.375-.154.11-.384.2-.593.219h-2.219C11.716 8 10.5 9.238 10.5 10.75V13.562a.503.503 0 0 0 0 .25V15.5a4.58 4.58 0 0 0 1 2.844v2.375L6.562 23.53A4.092 4.092 0 0 0 4.5 27.094V31H1V5zm15.938 3c.443.037.793.16 1.03.438.274.318.45.803.532 1.437v3.031a2.735 2.735 0 0 0-.625-.219c-.595-.109-1.203-.087-1.781-.062-.579.024-1.155.027-1.594-.094-.439-.12-.772-.308-1.063-.812a.515.515 0 0 0-.562-.25.51.51 0 0 0-.344.375c.018-.068-.052.089-.187.25-.136.16-.334.355-.531.531-.111.099-.208.17-.313.25V10.75c0-.982.76-1.75 1.719-1.75H15.468a2.202 2.202 0 0 0 1.126-.406c.178-.127.222-.392.343-.594zm-3.782 4.656c.35.34.676.729 1.094.844.634.175 1.28.15 1.875.125.595-.025 1.15-.045 1.563.031.37.068.613.21.812.5V15.5c0 1.98-1.555 3.531-3.5 3.531s-3.5-1.552-3.5-3.531v-1.406c.099-.048.183-.126.281-.188.236-.15.459-.327.688-.531a6.47 6.47 0 0 0 .625-.625c.025-.03.038-.065.062-.094zm-.656 6.656c.711.474 1.582.72 2.5.72.918 0 1.789-.246 2.5-.72v1.907c-.403.754-.76 1.548-1.656 2.312l-.031.032-.813.75-.75-.75-.063-.063c-.699-.755-1.36-1.649-1.687-2.5v-1.688zm-1.375 2.782-.625 2.218v.063c-.094.778.75 1.434 1.469 1.094v-.032l1.844-.906.687.657V31h-5v-3h-1v3h-3v-3.906c0-1.118.592-2.164 1.563-2.719l4.062-2.281zm1 0c.32.576.637 1.13 1.063 1.625l-1.657.843c-.038.018-.041.022-.031-.062l.625-2.406zm6.906.062L23 24.438A2.966 2.966 0 0 1 24.5 27v4h-2.969v-3h-1v3H15.5v-5.781l.75-.688 1.969.938c.728.33 1.569-.301 1.468-1.094v-.093s-.277-.844-.53-1.688c-.049-.16-.08-.286-.126-.438zm-1 .157c.058.199.094.386.157.593.243.807.472 1.509.5 1.594.008.068 0 .091-.063.063l-1.688-.813c.465-.508.848-.98 1.094-1.438zM16.5 27a.5.5 0 1 0 0 1 .5.5 0 0 0 0-1zm0 2a.5.5 0 1 0 0 1 .5.5 0 0 0 0-1z" color="#000" font-family="Sans" font-weight="400" overflow="visible" style="text-indent:0;text-align:start;line-height:normal;text-transform:none;block-progression:tb;marker:none;-inkscape-font-specification:Sans" fill="#f8f8f8" class="color000 svgShape"></path></svg></g></svg>